<?xml version="1.0" encoding="UTF-8" standalone="no"?>
<!-- Created with Inkscape (http://www.inkscape.org/) -->
<svg id="svg3322" xmlns:rdf="http://www.w3.org/1999/02/22-rdf-syntax-ns#" xmlns="http://www.w3.org/2000/svg" viewBox="0 0 524.08 74.864" version="1.1" xmlns:cc="http://creativecommons.org/ns#" xmlns:dc="http://purl.org/dc/elements/1.1/">
 <metadata id="metadata3327">
  <rdf:RDF>
   <cc:Work rdf:about="">
    <dc:format>image/svg+xml</dc:format>
    <dc:type rdf:resource="http://purl.org/dc/dcmitype/StillImage"/>
    <dc:title/>
   </cc:Work>
  </rdf:RDF>
 </metadata>
 <g id="layer1" transform="translate(-112.50509,-93.777254)">
  <g id="g3063">
   <g id="layer1-4" transform="translate(3.7429214,-1.1445456)">
    <path id="path5869-1-0" d="m194.88,115.67-21.615,0,0,14.286,21.428,0,0,4.472-21.428,0,0,17.919,21.428,0,0,4.5031-25.993,0,0-45.683,26.18,0z" style="baseline-shift:baseline;" fill="#FFF"/>
    <path id="path5871-7-9" d="m241.03,156.85-4.907,0-7.174-15.031-19.689,0-7.143,15.031-5.093,0,21.584-45.683,1.118,0zm-14.099-19.441-7.764-16.553-7.857,16.553z" style="baseline-shift:baseline;" fill="#FFF"/>
    <path id="path5873-4-4" d="m265.58,156.85-22.143,0,0-45.683,4.596,0,0,41.273,17.547,0z" style="baseline-shift:baseline;" fill="#FFF"/>
    <path id="path5875-0-8" d="m295.85,115.67-21.615,0,0,14.286,21.428,0,0,4.472-21.428,0,0,17.919,21.428,0,0,4.5031-25.993,0,0-45.683,26.18,0z" style="baseline-shift:baseline;" fill="#FFF"/>
    <path id="path5877-9-8" d="m330.04,156.85-5.652,0-16.398-21.242-2.608,0,0,21.242-4.566,0,0-45.683,9.1,0c5.072,0.00005,8.509,0.20708,10.31,0.62111,2.816,0.64186,5.047,1.998,6.693,4.0683,1.646,2.0704,2.468,4.5549,2.469,7.4533,0,5.2174-2.257,8.8198-6.771,10.807-2.173,0.97309-5.176,1.47-9.006,1.4907zm-5.404-33.54c0-1.5113-0.404-2.8933-1.211-4.1459-0.808-1.2525-1.895-2.1532-3.261-2.7018-1.366-0.54861-3.613-0.82294-6.739-0.82298h-8.043v15.528l7.857,0.0621c5.196,0.0414,8.592-1.1801,10.186-3.6646,0.807-1.2629,1.211-2.6811,1.211-4.2546z" style="baseline-shift:baseline;" fill="#FFF"/>
    <path id="path5879-4-2" d="m351.83,147.88c-0.982-4.6948-1.574-6.3182-3.558-9.7578-1.628-2.8212-3.489-5.3031-6.728-8.9711-3.599-4.0748-4.873-7.0775-4.873-11.48,0-2.9404,0.797-5.8672,2.289-8.4133,1.085-1.8521,3.571-4.2313,5.997-5.7403,8.564-5.3267,18.827-5.1881,27.261,0.36831,2.957,1.948,4.915,4.1077,6.238,6.8794,2.973,6.2307,1.922,12.423-3.063,18.032-6.274,7.0591-9.635,12.969-10.395,18.278l-0.206,1.4386-1.899,0.0832-1.898,0.0832s-4.788,0.59672-4.788-0.0257h-2.1c-2.072,0-2.11-0.0131-2.27-0.77458zm32.289-30.183c-0.28059-6.9986-3.0112-12.523-8.1912-16.573-5.1802-4.05-11.126-6.1174-17.838-6.2022-6.7117,0.08479-12.658,2.1522-17.838,6.2022-5.1801,4.0501-7.9105,9.5745-8.1912,16.573-0.008,5.2278,1.737,9.7694,5.2363,13.624,1.8651,1.9647,3.6762,4.2248,5.4333,6.7805,1.757,2.5557,3.6324,6.0937,3.947,8.8463l22.955,0.0442c0.3149-2.7526,2.0575-6.3348,3.8146-8.8905,1.757-2.5556,3.5682-4.8158,5.4333-6.7805,3.4993-3.8551,5.2447-8.3966,5.2362-13.624z" fill="#FFF"/>
    <path id="path5881-8-4" d="m361.79,115.04c0,0.94795-0.336,1.7527-1.007,2.4142-0.671,0.6616-1.481,0.99239-2.429,0.99235-0.928,0.00004-1.728-0.33568-2.399-1.0072-0.672-0.67139-1.008-1.4712-1.008-2.3994,0-0.94788,0.331-1.7576,0.993-2.429,0.661-0.6714,1.466-1.0071,2.414-1.0072,0.948,0.00004,1.758,0.33576,2.429,1.0072,0.671,0.67149,1.007,1.4812,1.007,2.429zm-1.333,42.064-4.177,0,0-32.229,4.177,0z" fill="#b3b3b3"/>
    <path id="path5883-8-5" d="m423.29,156.85-1.025,0-30.124-34.534,0,34.534-4.72,0,0-45.683,0.993,0,30.373,34.969,0-34.969,4.503,0z" style="baseline-shift:baseline;" fill="#FFF"/>
    <path id="path5885-2-5" d="m453.25,145.7c0,3.4575-1.304,6.3871-3.913,8.7887-2.526,2.3395-5.538,3.5093-9.037,3.5093-5.673,0-10.269-3.2194-13.789-9.6583l3.882-2.3292c2.733,5.031,5.89,7.5465,9.472,7.5465,3.396,0,5.859-1.3147,7.391-3.9441,0.704-1.2008,1.056-2.4741,1.056-3.8198,0-1.5321-0.517-3.0331-1.552-4.503-1.346-1.9254-3.851-4.2546-7.516-6.9875-3.747-2.7743-6.221-4.9689-7.422-6.5838-1.615-2.1739-2.423-4.503-2.422-6.9875,0-4.2235,1.821-7.3291,5.465-9.3167,1.719-0.93163,3.592-1.3975,5.621-1.3975,4.348,0.00005,8.344,2.4948,11.988,7.4844l-3.727,2.826c-1.387-1.8219-2.567-3.1159-3.54-3.8819-1.449-1.1387-3.054-1.708-4.814-1.7081-1.76,0.00004-3.23,0.52799-4.41,1.5838-1.242,1.0766-1.863,2.4845-1.863,4.2236,0,2.0497,0.963,4.0269,2.888,5.9316,0.559,0.53832,2.526,2.06,5.901,4.5652,3.105,2.2981,5.424,4.3685,6.956,6.2111,2.257,2.7536,3.385,5.5693,3.385,8.4471z" style="baseline-shift:baseline;" fill="#FFF"/>
    <path id="path5887-4-1" d="m480.2,115.61-10.186,0,0,41.242-4.658,0,0-41.242-10.218,0,0-4.441,25.062,0z" style="baseline-shift:baseline;" fill="#FFF"/>
    <path id="path5889-5-7" d="m487.43,156.85-4.565,0,0-45.683,4.565,0z" style="baseline-shift:baseline;" fill="#FFF"/>
    <path id="path5891-5-1" d="m530.59,156.85-1.025,0-30.124-34.534,0,34.534-4.72,0,0-45.683,0.994,0,30.372,34.969,0-34.969,4.503,0z" style="baseline-shift:baseline;" fill="#FFF"/>
    <path id="path5893-1-1" d="m581.08,148.9c-4.762,6.0662-11.408,9.0993-19.937,9.0993-8.013,0-14.317-2.6604-18.913-7.9813-3.872-4.472-5.808-9.8964-5.808-16.273,0-6.8943,2.402-12.598,7.205-17.112,4.7-4.4098,10.518-6.6148,17.453-6.6148,8.696,0.00005,15.363,3.2091,20,9.6272l-3.602,2.764c-4.037-5.2587-9.483-7.8881-16.335-7.8881-3.562,0.00005-6.884,0.8489-9.969,2.5466-3.168,1.7184-5.616,4.0735-7.345,7.0651-1.729,2.9917-2.593,6.3302-2.593,10.015,0,5.7142,1.946,10.414,5.838,14.099,3.831,3.6232,8.613,5.4347,14.348,5.4347,6.397,0,11.749-2.5052,16.056-7.5154z" style="baseline-shift:baseline;" fill="#FFF"/>
    <path id="path5895-7-5" d="m607.5,115.61-10.186,0,0,41.242-4.658,0,0-41.242-10.218,0,0-4.441,25.062,0z" style="baseline-shift:baseline;" fill="#FFF"/>
    <path id="path5897-1-2" d="m632.84,145.7c0,3.4575-1.304,6.3871-3.913,8.7887-2.525,2.3395-5.538,3.5093-9.037,3.5093-5.673,0-10.269-3.2194-13.788-9.6583l3.882-2.3292c2.732,5.031,5.89,7.5465,9.472,7.5465,3.395,0,5.859-1.3147,7.391-3.9441,0.704-1.2008,1.056-2.4741,1.056-3.8198,0-1.5321-0.518-3.0331-1.553-4.503-1.346-1.9254-3.851-4.2546-7.516-6.9875-3.747-2.7743-6.221-4.9689-7.422-6.5838-1.615-2.1739-2.422-4.503-2.422-6.9875,0-4.2235,1.822-7.3291,5.466-9.3167,1.718-0.93163,3.592-1.3975,5.621-1.3975,4.347,0.00005,8.343,2.4948,11.987,7.4844l-3.727,2.826c-1.387-1.8219-2.567-3.1159-3.54-3.8819-1.449-1.1387-3.054-1.708-4.814-1.7081-1.759,0.00004-3.229,0.52799-4.409,1.5838-1.243,1.0766-1.864,2.4845-1.864,4.2236,0,2.0497,0.963,4.0269,2.888,5.9316,0.559,0.53832,2.526,2.06,5.901,4.5652,3.106,2.2981,5.424,4.3685,6.956,6.2111,2.257,2.7536,3.385,5.5693,3.385,8.4471z" style="baseline-shift:baseline;" fill="#FFF"/>
    <path id="path5899-1-7" stroke-linejoin="miter" d="m160.28,167.81,177.81,0" stroke="#b3b3b3" stroke-linecap="butt" stroke-miterlimit="4" stroke-dasharray="none" stroke-width="3.80536675000000010" fill="#000"/>
    <path id="rect5901-5-6" d="m344.99,146.59,26.75,0,0,10-26.75,0z" fill="#FFF"/>
    <path id="path5903-2-1" stroke-linejoin="miter" d="m378.93,167.65,245.19-0.0641" stroke="#b3b3b3" stroke-linecap="butt" stroke-miterlimit="4" stroke-dasharray="none" stroke-width="4.10794163000000000" fill="#000"/>
    <path id="rect5907-7-4" d="m347.28,155.21,22.178,0,0,10.216-22.178,0z" fill="#FFF"/>
    <path id="rect5909-6-2" d="m349.86,163.82,17.027,0,0,5.9655-17.027,0z" fill="#FFF"/>
    <path id="path3864-2" fill="#FFF" d="m108.76,169.7,0-72.828,18.688,0c12.161,0.000073,21.347,2.988,27.561,8.9639,6.2126,5.976,9.3189,14.805,9.319,26.485-0.00007,5.6205-0.86753,10.733-2.6024,15.338-1.735,4.6047-4.2383,8.5407-7.5097,11.808-3.2717,3.2673-7.2371,5.7897-11.897,7.5673-4.6595,1.7775-9.914,2.6664-15.764,2.6664zm5.8482-67.704,0,62.63,11.291,0c5.0641,0,9.5892-0.70113,13.575-2.1035,3.9862-1.4023,7.3652-3.462,10.137-6.1789,2.7716-2.717,4.8844-6.0737,6.3387-10.07,1.4541-3.9965,2.1813-8.5891,2.1814-13.777-0.00005-20.333-10.488-30.5-31.463-30.5z"/>
    <g id="text3041" style="letter-spacing:0px;word-spacing:0px;" line-height="125%" font-family="Eras Bold ITC" font-size="40px" font-style="normal" font-stretch="normal" font-variant="normal" font-weight="normal" fill="#FFF">
     <path id="path3008" d="m625.83,169.73,0-3.5684-1.2744,0,0-0.72656,3.4131,0,0,0.72656-1.2715,0,0,3.5684z"/>
     <path id="path3010" d="m628.52,169.73,0-4.2949,1.2978,0,0.7793,2.9297,0.77051-2.9297,1.3008,0,0,4.2949-0.80567,0,0-3.3809-0.85254,3.3809-0.83496,0-0.84961-3.3809,0,3.3809z"/>
    </g>
   </g>
  </g>
 </g>
</svg>
